<svg id="Capa_1" enable-background="new 0 0 510 510" height="512" viewBox="0 0 510 510" width="512" xmlns="http://www.w3.org/2000/svg" xmlns:xlink="http://www.w3.org/1999/xlink"><linearGradient id="lg1"><stop offset="0" stop-color="#a79ba7"/><stop offset=".7487" stop-color="#7a6d79"/><stop offset="1" stop-color="#685e68"/></linearGradient><linearGradient id="SVGID_1_" gradientUnits="userSpaceOnUse" x1="178" x2="274.021" xlink:href="#lg1" y1="30.15" y2="30.15"/><linearGradient id="lg2"><stop offset="0" stop-color="#685e68"/><stop offset="1" stop-color="#433f43"/></linearGradient><linearGradient id="SVGID_2_" gradientUnits="userSpaceOnUse" x1="274" x2="343" xlink:href="#lg2" y1="30.15" y2="30.15"/><linearGradient id="SVGID_3_" gradientUnits="userSpaceOnUse" x1="104.837" x2="405.163" y1="282.648" y2="282.648"><stop offset="0" stop-color="#a2e62e"/><stop offset=".7542" stop-color="#09a76d"/><stop offset="1" stop-color="#017b4e"/></linearGradient><linearGradient id="SVGID_4_" gradientUnits="userSpaceOnUse" x1="287.142" x2="422.169" y1="281.648" y2="281.648"><stop offset="0" stop-color="#09a76d"/><stop offset="1" stop-color="#026841"/></linearGradient><linearGradient id="SVGID_5_" gradientUnits="userSpaceOnUse" x1="107" x2="401.206" xlink:href="#lg1" y1="481" y2="481"/><linearGradient id="SVGID_6_" gradientUnits="userSpaceOnUse" x1="107" x2="401.206" xlink:href="#lg1" y1="82.29" y2="82.29"/><linearGradient id="SVGID_7_" gradientUnits="userSpaceOnUse" x1="287.144" x2="422.165" xlink:href="#lg2" y1="481" y2="481"/><linearGradient id="SVGID_8_" gradientUnits="userSpaceOnUse" x1="287.144" x2="422.165" xlink:href="#lg2" y1="82.29" y2="82.29"/><linearGradient id="SVGID_9_" gradientUnits="userSpaceOnUse" x1="174.667" x2="309.393" y1="281.648" y2="281.648"><stop offset="0" stop-color="#fff9df"/><stop offset=".593" stop-color="#ffe177"/><stop offset="1" stop-color="#feb137"/></linearGradient><linearGradient id="SVGID_10_" gradientUnits="userSpaceOnUse" x1="224" x2="329.906" y1="329.6" y2="329.6"><stop offset="0" stop-color="#ffe177"/><stop offset="1" stop-color="#feb137"/></linearGradient><g><path d="m330.528 60.299v-28.681c0-17.462-14.156-31.618-31.619-31.618h-87.819c-17.462 0-31.618 14.156-31.618 31.618v28.681z" fill="url(#SVGID_1_)"/><path d="m298.909 0h-40.02c17.462 0 31.618 14.156 31.618 31.618v28.681h40.02v-28.681c.001-17.462-14.155-31.618-31.618-31.618z" fill="url(#SVGID_2_)"/><path d="m373.545 55.295h-237.09c-17.462 0-31.618 12.156-31.618 29.618v393.468c0 17.462 14.156 31.618 31.618 31.618h237.09c17.462 0 31.618-14.156 31.618-31.618v-393.468c0-17.462-14.156-29.618-31.618-29.618z" fill="url(#SVGID_3_)"/><path d="m373.545 53.295h-40.02c17.462 0 31.618 14.156 31.618 31.618v393.468c0 17.462-14.156 31.618-31.618 31.618h40.02c17.462 0 31.618-14.156 31.618-31.618v-393.468c0-17.462-14.156-31.618-31.618-31.618z" fill="url(#SVGID_4_)"/><path d="m405.16 452v26.38c0 17.46-14.15 31.62-31.61 31.62h-237.1c-17.46 0-31.61-14.16-31.61-31.62v-26.38z" fill="url(#SVGID_5_)"/><path d="m405.16 84.91v26.38h-300.32v-26.38c0-17.46 14.15-31.62 31.61-31.62h237.1c17.46 0 31.61 14.16 31.61 31.62z" fill="url(#SVGID_6_)"/><path d="m405.16 478.38v-26.38h-40.017v26.382c0 17.462-14.156 31.618-31.618 31.618h40.025c17.46 0 31.61-14.16 31.61-31.62z" fill="url(#SVGID_7_)"/><path d="m373.55 53.29h-40.014l-.011.005c17.462 0 31.618 14.156 31.618 31.618v26.377h40.017v-26.38c0-17.46-14.15-31.62-31.61-31.62z" fill="url(#SVGID_8_)"/><g><path d="m326.743 246.972h-40.589c-10.613 0-18.27-10.166-15.34-20.366l17.931-62.434c3.141-10.937-11.246-18.056-18.035-8.923l-100.476 135.164c-7.959 10.707-.317 25.91 13.024 25.91h40.589c10.613 0 18.27 10.166 15.34 20.366l-17.931 62.434c-3.141 10.937 11.246 18.056 18.035 8.923l100.476-135.165c7.958-10.706.316-25.909-13.024-25.909z" fill="url(#SVGID_9_)"/><path d="m326.743 246.972h-31.739c-19.305 36.703-57.802 61.737-102.153 61.737-8.472 0-16.728-.922-24.681-2.656 2.305 5.798 7.855 10.27 15.088 10.27h40.589c10.613 0 18.27 10.166 15.34 20.366l-17.931 62.434c-3.141 10.937 11.246 18.056 18.035 8.923l100.477-135.165c7.957-10.706.315-25.909-13.025-25.909z" fill="url(#SVGID_10_)"/></g></g></svg>