<svg height="512" viewBox="0 0 512 512" width="512" xmlns="http://www.w3.org/2000/svg"><g id="flat"><path d="m46 48h420a22 22 0 0 1 22 22v250a0 0 0 0 1 0 0h-464a0 0 0 0 1 0 0v-250a22 22 0 0 1 22-22z" fill="#0bafea"/><path d="m24 320h464a0 0 0 0 1 0 0v26a22 22 0 0 1 -22 22h-420a22 22 0 0 1 -22-22v-26a0 0 0 0 1 0 0z" fill="#eaeae8"/><path d="m256 240-72-40v-80l72 40z" fill="#fbb540"/><path d="m328 200-72 40v-80l72-40z" fill="#d18d28"/><path d="m328 120-72-40-72 40 72 40z" fill="#ea9d2d"/><path d="m328 280h-144a8 8 0 0 1 0-16h144a8 8 0 0 1 0 16z" fill="#0276b4"/><path d="m208 256h24v32h-24z" fill="#ea9d2d"/><path d="m324.58 442.3a144.41 144.41 0 0 1 -20.58-74.3h-48a16 16 0 1 1 -16 16 16 16 0 0 1 16-16h-48a144.41 144.41 0 0 1 -20.58 74.3l-3.42 5.7h144z" fill="#cbcbcb"/></g></svg>