<?xml version="1.0"?>
<svg xmlns="http://www.w3.org/2000/svg" viewBox="0 0 64 64" width="512" height="512"><circle cx="31.99976" cy="32" fill="#de2f55" r="8"/><path d="m23.99976 32a8 8 0 0 0 8 8v-16a8 8 0 0 0 -8 8z" fill="#db6181"/><path d="m32 3 2.163 4.609 4.837.739-3.5 3.587.826 5.065-4.326-2.391-4.326 2.391.826-5.065-3.5-3.587 4.837-.739z" fill="#e9cd4b"/><path d="m29.837 7.609-4.837.739 3.5 3.587-.826 5.065 4.326-2.391v-11.609z" fill="#e5d283"/><path d="m26.99976 51h10v10h-10z" fill="#816892"/><path d="m26.99976 51h5v10h-5z" fill="#aa7fdd"/><path d="m9 25-6 12h12z" fill="#efbe92"/><path d="m58 26h-6l-3 5 3 5h6l3-5z" fill="#ed715d"/><circle cx="7.99976" cy="8" fill="#98ede6" r="5"/><circle cx="55.99976" cy="56" fill="#65cecc" r="5"/><path d="m60.99976 8a5 5 0 0 1 -10 0 5.06131 5.06131 0 0 1 5-5 5 5 0 0 1 5 5z" fill="#65cecc"/><circle cx="7.99976" cy="56" fill="#98ede6" r="5"/><path d="m55.99976 50a5.96865 5.96865 0 0 0 -3.971 1.514l-12.61732-14.41982a8.94467 8.94467 0 0 0 1.58832-5.09418h7.43377l2.7088 4.51465a.99916.99916 0 0 0 .85743.48535h6a.99916.99916 0 0 0 .85742-.48535l3-5a.99866.99866 0 0 0 0-1.0293l-3-5a.99916.99916 0 0 0 -.85742-.48535h-6a.99916.99916 0 0 0 -.85743.48535l-2.7088 4.51465h-7.66553a8.95581 8.95581 0 0 0 -1.31525-3.03894l13.69825-13.69824a6.54637 6.54637 0 0 0 2.8136.73669c.06738.00244.13574.00342.20312.00342a5.68894 5.68894 0 0 0 3.97461-1.626 6.112 6.112 0 0 0 1.85743-4.37693 5.99956 5.99956 0 0 0 -11.999-.0332 5.63976 5.63976 0 0 0 1.54145 4.07672l-13.39835 13.39831a8.96159 8.96159 0 0 0 -5.1441-2.38287v-6.75525l2.84277 1.57129a1 1 0 0 0 1.4707-1.03613l-.74511-4.56739 3.14746-3.22558a.99983.99983 0 0 0 -.56446-1.68652l-4.30957-.6587-1.93655-4.12548a1 1 0 0 0 -1.81055 0l-1.93645 4.12548-4.30957.6587a.99983.99983 0 0 0 -.56445 1.68652l3.14746 3.22558-.74512 4.56739a1 1 0 0 0 1.47068 1.03613l2.84278-1.57129v6.75529a8.95 8.95 0 0 0 -4.59778 1.90609l-13.143-14.08179a6.05526 6.05526 0 1 0 -1.26239 1.5791l12.98703 13.91474a8.96577 8.96577 0 0 0 -1.75213 3.62286h-10.61359l-2.72363-5.44727a1.04128 1.04128 0 0 0 -1.78907 0l-6 12a1.0001 1.0001 0 0 0 .89454 1.44727h12a1.0001 1.0001 0 0 0 .89453-1.44727l-2.27637-4.55273h9.38184a8.95785 8.95785 0 0 0 2.44183 6.1441l-13.418 13.418a5.9435 5.9435 0 1 0 1.24982 1.57831l13.68734-13.68735a8.94333 8.94333 0 0 0 4.039 1.488v9.05894h-4a.99973.99973 0 0 0 -1 1v10a.99973.99973 0 0 0 1 1h10a.99974.99974 0 0 0 1-1v-10a.99974.99974 0 0 0 -1-1h-4v-9.059a8.95881 8.95881 0 0 0 5.08282-2.32721l12.67109 14.4813a5.99761 5.99761 0 1 0 5.2461-3.09509zm-20 10h-8v-8h8zm16.5664-33h4.86719l2.40039 4-2.40039 4h-4.86719l-2.40039-4zm3.4336-23a4.00427 4.00427 0 0 1 4 4 4.10243 4.10243 0 0 1 -1.2461 2.938 3.73165 3.73165 0 0 1 -2.71875 1.0625 3.97249 3.97249 0 0 1 -4.03613-3.9668 4.07272 4.07272 0 0 1 4.00098-4.0337zm-26.78418 7.23633-2.14058-2.19433 2.913-.44532a1.0002 1.0002 0 0 0 .7539-.56348l1.25782-2.67968 1.25785 2.67968a1.0002 1.0002 0 0 0 .7539.56348l2.91309.44531-2.14062 2.19434a1.00072 1.00072 0 0 0 -.27149.85937l.49512 3.03272-2.52442-1.395a.99718.99718 0 0 0 -.96679 0l-2.52442 1.395.49512-3.03272a1.00084 1.00084 0 0 0 -.27148-.85937zm-21.21582.76367a4 4 0 1 1 4-4 4.00426 4.00426 0 0 1 -4 4zm-3.38184 24 4.38184-8.76416 4.38183 8.76416zm3.38184 24a4 4 0 1 1 4-4 4.00426 4.00426 0 0 1 -4 4zm24-21a7 7 0 1 1 7-7 7.00818 7.00818 0 0 1 -7 7zm24 21a4 4 0 1 1 4-4 4.00426 4.00426 0 0 1 -4 4z" fill="#d6d2d4"/></svg>
