<svg id="Capa_1" enable-background="new 0 0 512 512" height="512" viewBox="0 0 512 512" width="512" xmlns="http://www.w3.org/2000/svg"><g><g><path d="m113.5 290c-62.033 0-112.5-50.468-112.5-112.5 0-27.514 17.375-65.211 51.645-112.045 24.63-33.662 48.892-59.625 49.913-60.714 2.835-3.025 6.796-4.741 10.942-4.741s8.107 1.716 10.943 4.741c1.021 1.089 25.282 27.052 49.913 60.714 34.269 46.834 51.644 84.531 51.644 112.045 0 62.032-50.467 112.5-112.5 112.5z" fill="#bcfbff"/></g><g><path d="m174.355 65.455c-24.63-33.662-48.892-59.625-49.913-60.714-2.835-3.025-6.796-4.741-10.942-4.741v290c62.033 0 112.5-50.468 112.5-112.5 0-27.514-17.375-65.211-51.645-112.045z" fill="#acceff"/></g><g><g><g><path d="m436 190c-41.355 0-75-33.645-75-75 0-18.438 10.76-42.107 32.895-72.357 15.362-20.995 30.524-37.222 31.163-37.901 2.835-3.026 6.796-4.742 10.942-4.742s8.107 1.716 10.943 4.741c.638.68 15.801 16.906 31.163 37.901 22.134 30.251 32.894 53.92 32.894 72.358 0 41.355-33.645 75-75 75z" fill="#bcfbff"/></g><g><path d="m478.105 42.643c-15.362-20.995-30.524-37.222-31.163-37.901-2.835-3.026-6.796-4.742-10.942-4.742v190c41.355 0 75-33.645 75-75 0-18.438-10.76-42.107-32.895-72.357z" fill="#acceff"/></g><g><g><path d="m276 512c-90.981 0-165-74.019-165-165 0-40.577 26.208-96.969 77.895-167.607 37.606-51.396 74.606-90.991 76.163-92.651 2.835-3.026 6.796-4.742 10.942-4.742s8.107 1.716 10.943 4.741c1.557 1.66 38.557 41.256 76.163 92.651 51.686 70.639 77.894 127.031 77.894 167.608 0 90.981-74.019 165-165 165z" fill="#bcfbff"/></g><path d="m363.105 179.393c-37.605-51.396-74.605-90.992-76.162-92.652-2.836-3.025-6.797-4.741-10.943-4.741v430c90.981 0 165-74.019 165-165 0-40.577-26.208-96.969-77.895-167.607z" fill="#acceff"/><g><path d="m276 452c-57.897 0-105-47.103-105-105s47.103-105 105-105 105 47.103 105 105-47.103 105-105 105z" fill="#0052be"/></g><path d="m381 347c0-57.897-47.103-105-105-105v210c57.897 0 105-47.103 105-105z" fill="#453d81"/><circle cx="276" cy="347" fill="#f9f9f9" r="75"/><path d="m351 347c0-41.355-33.645-75-75-75v150c41.355 0 75-33.645 75-75z" fill="#e2dff4"/></g><g><path d="m237.109 385.891c-5.858-5.858-5.858-15.355 0-21.213l23.891-23.891v-33.787c0-8.284 6.716-15 15-15 8.284 0 15 6.716 15 15v40c0 3.979-1.581 7.794-4.394 10.606l-28.284 28.284c-5.858 5.858-15.355 5.859-21.213.001z" fill="#0052be"/></g><path d="m276 368.213 10.606-10.606c2.813-2.813 4.394-6.628 4.394-10.607v-40c0-8.284-6.716-15-15-15z" fill="#453d81"/></g></g></g></svg>